<?xml version="1.0" standalone="no"?>
<!DOCTYPE svg PUBLIC "-//W3C//DTD SVG 20010904//EN"
 "http://www.w3.org/TR/2001/REC-SVG-20010904/DTD/svg10.dtd">
<svg version="1.0" xmlns="http://www.w3.org/2000/svg"
 width="700.000000pt" height="700.000000pt" viewBox="0 0 700.000000 700.000000"
 preserveAspectRatio="xMidYMid meet">
<metadata>
Created by potrace 1.14, written by Peter Selinger 2001-2017
</metadata>
<g transform="translate(0.000000,700.000000) scale(0.100000,-0.100000)"
fill="#000000" stroke="none">
<path d="M2285 6617 c-34 -16 -108 -94 -156 -165 -43 -64 -85 -159 -111 -250
-31 -108 -31 -313 0 -424 43 -156 112 -271 250 -417 37 -38 87 -141 101 -206
13 -62 3 -208 -17 -263 -26 -67 -62 -128 -100 -168 -98 -102 -83 -238 33 -294
117 -57 231 19 343 230 66 123 93 227 97 374 5 212 -74 427 -211 576 -97 105
-135 166 -156 250 -42 163 -2 332 107 457 25 28 49 63 55 78 27 70 0 159 -61
205 -41 29 -128 38 -174 17z"/>
<path d="M3425 6613 c-56 -29 -151 -146 -205 -252 -136 -269 -105 -625 77
-864 26 -34 69 -87 97 -117 51 -57 109 -168 120 -232 12 -67 8 -166 -9 -225
-23 -78 -45 -119 -105 -194 -64 -79 -78 -124 -61 -187 23 -89 108 -143 200
-127 94 16 245 214 295 389 25 86 28 107 33 222 10 232 -56 405 -233 612 -86
100 -123 168 -140 259 -29 156 11 301 119 423 62 70 77 132 50 200 -38 94
-151 139 -238 93z"/>
<path d="M4562 6610 c-55 -34 -137 -136 -189 -235 -102 -196 -122 -441 -52
-647 41 -122 108 -231 212 -342 92 -99 138 -223 131 -358 -5 -116 -44 -210
-126 -306 -22 -25 -44 -57 -50 -71 -34 -86 4 -185 86 -222 107 -49 192 -3 303
164 109 163 154 357 131 559 -21 183 -96 341 -234 490 -97 104 -145 219 -145
343 1 133 39 235 123 330 73 84 86 142 47 222 -41 84 -159 120 -237 73z"/>
<path d="M25 3817 c3 -34 8 -73 10 -87 2 -14 7 -45 10 -70 5 -40 14 -94 29
-185 25 -146 118 -478 166 -590 5 -11 25 -60 45 -110 46 -112 148 -317 211
-421 82 -137 245 -373 289 -420 5 -6 28 -32 50 -59 137 -166 315 -338 505
-489 64 -50 122 -95 131 -101 8 -5 67 -44 130 -86 108 -71 196 -125 264 -159
l30 -15 3 -338 2 -337 1343 0 c1487 1 1391 -4 1535 67 120 59 236 186 286 313
17 43 21 55 32 110 6 29 13 99 14 150 0 33 4 37 77 75 69 36 370 228 383 244
3 3 30 25 60 47 163 121 399 349 553 533 314 377 568 865 688 1322 34 131 74
321 83 399 4 30 11 87 16 125 6 39 13 87 15 107 l5 38 -3486 0 -3486 -1 7 -62z"/>
</g>
</svg>
