<svg width="52" height="52" viewBox="0 0 52 52" fill="none" xmlns="http://www.w3.org/2000/svg">
<path d="M43.771 40.2025C41.4635 36.4845 36.3838 32.5 26 32.5C15.6163 32.5 10.5398 36.4812 8.229 40.2025C10.358 42.8715 13.0615 45.0261 16.1382 46.506C19.215 47.9858 22.5859 48.7529 26 48.75C29.4142 48.7529 32.785 47.9858 35.8618 46.506C38.9385 45.0261 41.642 42.8715 43.771 40.2025Z" fill="white"/>
<path fill-rule="evenodd" clip-rule="evenodd" d="M26 29.25C28.5859 29.25 31.0658 28.2228 32.8943 26.3943C34.7228 24.5658 35.75 22.0859 35.75 19.5C35.75 16.9141 34.7228 14.4342 32.8943 12.6057C31.0658 10.7772 28.5859 9.75 26 9.75C23.4141 9.75 20.9342 10.7772 19.1057 12.6057C17.2772 14.4342 16.25 16.9141 16.25 19.5C16.25 22.0859 17.2772 24.5658 19.1057 26.3943C20.9342 28.2228 23.4141 29.25 26 29.25Z" fill="white"/>
<path fill-rule="evenodd" clip-rule="evenodd" d="M26 3.25C19.9663 3.25 14.1798 5.64687 9.91332 9.91332C5.64687 14.1798 3.25 19.9663 3.25 26C3.25 32.0337 5.64687 37.8202 9.91332 42.0867C14.1798 46.3531 19.9663 48.75 26 48.75C32.0337 48.75 37.8202 46.3531 42.0867 42.0867C46.3531 37.8202 48.75 32.0337 48.75 26C48.75 19.9663 46.3531 14.1798 42.0867 9.91332C37.8202 5.64687 32.0337 3.25 26 3.25ZM0 26C0 19.1044 2.73928 12.4912 7.61522 7.61522C12.4912 2.73928 19.1044 0 26 0C32.8956 0 39.5088 2.73928 44.3848 7.61522C49.2607 12.4912 52 19.1044 52 26C52 32.8956 49.2607 39.5088 44.3848 44.3848C39.5088 49.2607 32.8956 52 26 52C19.1044 52 12.4912 49.2607 7.61522 44.3848C2.73928 39.5088 0 32.8956 0 26Z" fill="white"/>
</svg>
