<svg width="183" height="39" viewBox="0 0 183 39" fill="none" xmlns="http://www.w3.org/2000/svg">
<path d="M12.25 4C10.0167 4.93333 8.28333 6.33333 7.05 8.2C5.85 10.0667 5.25 12.3167 5.25 14.95C5.25 16.1833 5.36667 17.05 5.6 17.55C5.83333 18.0167 5.95 18.2833 5.95 18.35C4.15 18.35 2.8 17.9833 1.9 17.25C1.03333 16.4833 0.6 15.2333 0.6 13.5C0.6 11.3667 1.46667 9.3 3.2 7.3C4.96667 5.26667 7.21667 3.63333 9.95 2.4C12.6833 1.13333 15.4167 0.499997 18.15 0.499997C18.6167 0.499997 19.2833 0.533331 20.15 0.599999L16.95 15.5H24.3L27.5 0.599999H34.7L26.75 38H19.55L23.55 19.2H16.2L12.2 38H5L12.25 4ZM40.552 38.2C38.0853 38.2 36.1353 37.5667 34.702 36.3C33.2686 35.0333 32.552 33.0333 32.552 30.3C32.552 28.0333 33.0186 25.5167 33.952 22.75C34.8853 19.9833 36.3853 17.6 38.452 15.6C40.5186 13.5667 43.1186 12.55 46.252 12.55C50.5186 12.55 52.652 15.2167 52.652 20.55V20.6C52.752 20.6333 52.9353 20.65 53.202 20.65C54.302 20.65 55.5686 20.3667 57.002 19.8C58.4353 19.2 59.7353 18.4833 60.902 17.65L61.352 19C60.3853 20.0333 59.1186 20.9167 57.552 21.65C56.0186 22.35 54.3353 22.85 52.502 23.15C52.2353 26.1833 51.552 28.8333 50.452 31.1C49.352 33.3667 47.9353 35.1167 46.202 36.35C44.4686 37.5833 42.5853 38.2 40.552 38.2ZM42.552 33.7C43.352 33.7 44.152 33.25 44.952 32.35C45.752 31.4167 46.452 30.1667 47.052 28.6C47.652 27 48.0853 25.2333 48.352 23.3C47.452 23.1 47.002 22.4 47.002 21.2C47.002 19.8333 47.5186 18.9333 48.552 18.5C48.4853 17.4 48.3186 16.65 48.052 16.25C47.7853 15.8167 47.3186 15.6 46.652 15.6C45.552 15.6 44.4853 16.4 43.452 18C42.4186 19.6 41.5853 21.5167 40.952 23.75C40.3186 25.9833 40.002 27.95 40.002 29.65C40.002 31.25 40.1853 32.3333 40.552 32.9C40.9186 33.4333 41.5853 33.7 42.552 33.7ZM59.9246 38.3C58.2246 38.3 56.9579 37.7833 56.1246 36.75C55.3246 35.7167 54.9246 34.35 54.9246 32.65C54.9246 31.7833 55.0246 30.9 55.2246 30L58.4246 15H56.7746L57.1746 13H58.8246L60.3246 6.1L67.7246 5.1C67.4246 6.36667 67.2579 7.11667 67.2246 7.35C66.9913 8.28333 66.5913 10.1667 66.0246 13H69.0246L68.6246 15H65.6246L62.4246 30C62.2579 30.7333 62.1746 31.3167 62.1746 31.75C62.1746 32.95 62.7579 33.55 63.9246 33.55C64.5246 33.55 64.9579 33.5 65.2246 33.4C64.5579 35.3333 63.7746 36.6333 62.8746 37.3C61.9746 37.9667 60.9913 38.3 59.9246 38.3ZM85.093 3.65C82.5596 4.48333 80.593 5.86666 79.193 7.8C77.8263 9.7 77.143 12.0667 77.143 14.9C77.143 16.1667 77.2596 17.0333 77.493 17.5C77.7263 17.9667 77.843 18.25 77.843 18.35C74.2763 18.35 72.493 16.8333 72.493 13.8C72.493 11.7333 73.2763 9.66667 74.843 7.6C76.443 5.5 78.4763 3.8 80.943 2.5C83.443 1.16666 85.9263 0.499997 88.393 0.499997C89.6263 0.499997 90.893 0.73333 92.193 1.2L91.043 27.55L102.043 1.2H109.243L103.993 38H96.793L99.993 15.55L90.593 38H83.743L84.743 15.45L76.393 38H72.393L85.093 3.65ZM115.548 38.3C113.082 38.3 111.165 37.6667 109.798 36.4C108.432 35.1 107.748 33.0833 107.748 30.35C107.748 28.05 108.198 25.5167 109.098 22.75C109.998 19.9833 111.465 17.6 113.498 15.6C115.532 13.5667 118.115 12.55 121.248 12.55C124.915 12.55 126.748 14.15 126.748 17.35C126.748 19.2167 126.215 20.9333 125.148 22.5C124.082 24.0667 122.665 25.3333 120.898 26.3C119.132 27.2333 117.248 27.7667 115.248 27.9C115.182 28.9 115.148 29.5667 115.148 29.9C115.148 31.5333 115.432 32.65 115.998 33.25C116.565 33.8167 117.482 34.1 118.748 34.1C120.548 34.1 122.082 33.6833 123.348 32.85C124.648 32.0167 126.065 30.75 127.598 29.05H129.298C125.598 35.2167 121.015 38.3 115.548 38.3ZM115.648 25.5C116.882 25.4333 118.048 25 119.148 24.2C120.282 23.4 121.182 22.3833 121.848 21.15C122.548 19.9167 122.898 18.6167 122.898 17.25C122.898 15.8833 122.482 15.2 121.648 15.2C120.448 15.2 119.265 16.25 118.098 18.35C116.965 20.45 116.148 22.8333 115.648 25.5ZM133.588 38.3C131.688 38.3 130.105 37.65 128.838 36.35C127.571 35.05 126.938 33.0167 126.938 30.25C126.938 27.7833 127.421 25.2 128.388 22.5C129.388 19.7667 130.855 17.4667 132.788 15.6C134.755 13.7 137.088 12.75 139.788 12.75C141.155 12.75 142.171 12.9833 142.838 13.45C143.505 13.9167 143.838 14.5333 143.838 15.3V15.65L144.388 13H151.588L147.988 30C147.855 30.5 147.788 31.0333 147.788 31.6C147.788 33.0333 148.471 33.75 149.838 33.75C150.771 33.75 151.571 33.3167 152.238 32.45C152.938 31.5833 153.488 30.45 153.888 29.05H155.988C154.755 32.65 153.221 35.1 151.388 36.4C149.588 37.6667 147.771 38.3 145.938 38.3C144.538 38.3 143.405 37.9167 142.538 37.15C141.705 36.35 141.205 35.2 141.038 33.7C140.071 35.0667 138.988 36.1833 137.788 37.05C136.621 37.8833 135.221 38.3 133.588 38.3ZM136.838 33.45C137.671 33.45 138.488 33.0667 139.288 32.3C140.121 31.5 140.688 30.4167 140.988 29.05L143.388 17.75C143.388 17.3167 143.221 16.9 142.888 16.5C142.555 16.0667 142.038 15.85 141.338 15.85C140.005 15.85 138.805 16.6333 137.738 18.2C136.671 19.7333 135.838 21.6 135.238 23.8C134.638 25.9667 134.338 27.8833 134.338 29.55C134.338 31.2167 134.571 32.2833 135.038 32.75C135.538 33.2167 136.138 33.45 136.838 33.45ZM158.856 38.3C157.256 38.3 155.956 37.8 154.956 36.8C153.99 35.8 153.506 34.3 153.506 32.3C153.506 31.4667 153.64 30.3833 153.906 29.05L159.256 4L166.656 3L160.906 30C160.773 30.5 160.706 31.0333 160.706 31.6C160.706 32.2667 160.856 32.75 161.156 33.05C161.49 33.3167 162.023 33.45 162.756 33.45C163.723 33.45 164.623 33.05 165.456 32.25C166.29 31.4167 166.89 30.35 167.256 29.05H169.356C168.123 32.65 166.54 35.1 164.606 36.4C162.673 37.6667 160.756 38.3 158.856 38.3ZM172.936 38.3C171.336 38.3 169.986 38 168.886 37.4C167.786 36.7667 166.97 35.9667 166.436 35C165.903 34 165.636 32.9667 165.636 31.9C165.636 30.8 165.903 29.85 166.436 29.05C166.936 28.2167 167.553 27.6167 168.286 27.25C169.586 24.9167 170.72 22.5667 171.686 20.2C172.653 17.8 173.57 15.2167 174.436 12.45L181.836 11.45C182.003 15.7167 182.286 20.3333 182.686 25.3C182.853 27.3 182.936 28.75 182.936 29.65C182.936 31.6833 182.42 33.35 181.386 34.65C180.353 35.95 179.07 36.8833 177.536 37.45C176.036 38.0167 174.503 38.3 172.936 38.3ZM171.336 34.35C172.57 34.35 173.603 33.9833 174.436 33.25C175.27 32.5167 175.686 31.3333 175.686 29.7C175.686 28.7 175.586 27.3 175.386 25.5C175.053 21.7 174.836 19.15 174.736 17.85C173.936 20.4833 172.586 23.6333 170.686 27.3C171.453 27.7 171.836 28.2833 171.836 29.05C171.836 29.6833 171.62 30.25 171.186 30.75C170.786 31.25 170.27 31.5 169.636 31.5C168.936 31.5 168.486 31.2833 168.286 30.85C168.286 32.05 168.52 32.9333 168.986 33.5C169.486 34.0667 170.27 34.35 171.336 34.35Z" fill="white"/>
</svg>
