<svg width="56" height="56" viewBox="0 0 56 56" fill="none" xmlns="http://www.w3.org/2000/svg">
<path d="M16.5858 47.4757V51.8049H36.0591C37.9335 51.8049 39.4609 50.2726 39.4609 48.4031V47.4757" fill="#F69B77"/>
<path d="M36.0591 53.2H15.1914V47.4757H17.9803V50.4111H36.0591C37.1661 50.4111 38.0671 49.5108 38.0671 48.4031V47.4757H40.856V48.4031C40.856 51.048 38.7046 53.2 36.0591 53.2Z" fill="#434B56"/>
<path d="M23.2105 47.4757H17.7293C9.16987 43.872 2.9151 35.9021 1.71387 26.36H54.3336C53.1336 35.9021 46.8776 43.872 38.3206 47.4757H33.5693" fill="#F9BA8F"/>
<path d="M38.6019 48.8714H33.5692V46.0819H38.0345C45.6542 42.7717 51.1514 35.8616 52.7009 27.7557H3.34585C4.89662 35.861 10.3945 42.773 18.0135 46.0819H23.2105V48.8714H17.4468L17.1877 48.7619C8.02955 44.9053 1.57108 36.389 0.330468 26.5342L0.133545 24.9662H55.9151L55.7169 26.5342C54.4769 36.3877 48.0185 44.9053 38.8615 48.7619L38.6019 48.8714Z" fill="#434B56"/>
<path d="M18.8751 13.2277C18.6289 13.2277 18.3779 13.1618 18.152 13.0246C18.0622 12.9692 17.9766 12.9027 17.8997 12.8289C17.8923 12.8215 17.8856 12.816 17.8794 12.8086C15.2708 10.2024 15.2708 5.95936 17.8782 3.34829C18.4222 2.80306 19.3046 2.80306 19.8499 3.34706C20.3951 3.89229 20.3951 4.77475 19.8511 5.32059C18.3379 6.83505 18.3293 9.29352 19.8283 10.8135C20.3028 11.2554 20.4179 11.9834 20.0671 12.5569C19.8062 12.9895 19.3459 13.2277 18.8751 13.2277Z" fill="#434B56"/>
<path d="M18.8812 20.7193C18.5231 20.7193 18.1668 20.5821 17.8942 20.3095C17.3502 19.7643 17.3514 18.8818 17.8966 18.3366C19.4148 16.8209 19.4111 14.3458 17.888 12.8166C17.344 12.2713 17.3465 11.3889 17.8917 10.8449C18.4382 10.3021 19.32 10.3033 19.864 10.8486C22.4714 13.4652 22.4726 17.7095 19.8665 20.3107C19.5945 20.5821 19.2375 20.7193 18.8812 20.7193Z" fill="#434B56"/>
<path d="M28.0289 13.2277C27.656 13.2277 27.2819 13.0775 27.0068 12.7821C25.7588 11.5224 25.072 9.8529 25.072 8.07875C25.072 6.2929 25.7686 4.6129 27.032 3.34829C27.5772 2.80306 28.4603 2.80306 29.0037 3.34706C29.5496 3.89229 29.5496 4.77475 29.0056 5.32059C28.2683 6.05782 27.8622 7.03813 27.8622 8.07875C27.8622 9.11998 28.2683 10.0991 29.0037 10.8351C29.0425 10.8726 29.0776 10.912 29.1114 10.9526C29.5711 11.5181 29.5194 12.3514 28.9779 12.8547C28.7083 13.1034 28.3693 13.2277 28.0289 13.2277Z" fill="#434B56"/>
<path d="M28.0363 20.7193C27.6782 20.7193 27.3218 20.5821 27.0492 20.3095C26.5052 19.7642 26.5052 18.8818 27.0505 18.3378C28.5698 16.8208 28.5655 14.3445 27.0418 12.8178C26.4978 12.2725 26.4991 11.3901 27.0443 10.8461C27.5883 10.3021 28.4714 10.3021 29.0166 10.8473C31.6265 13.4621 31.6289 17.707 29.0228 20.3107C28.7495 20.5821 28.3932 20.7193 28.0363 20.7193Z" fill="#434B56"/>
<path d="M37.184 13.2277C36.9452 13.2277 36.704 13.1661 36.4825 13.0381C36.368 12.9723 36.2634 12.8867 36.1699 12.7907C34.9169 11.5298 34.2271 9.85782 34.2271 8.07935C34.2271 6.29351 34.9231 4.61351 36.1871 3.34889C36.7329 2.80489 37.6154 2.80366 38.1612 3.34889C38.7046 3.89289 38.7046 4.77535 38.1612 5.3212C37.4222 6.05966 37.016 7.03874 37.016 8.07935C37.016 9.11628 37.4185 10.091 38.1514 10.8258C38.6068 11.2615 38.7219 11.968 38.3908 12.536C38.1305 12.9803 37.6634 13.2277 37.184 13.2277Z" fill="#434B56"/>
<path d="M37.1889 20.7193C36.832 20.7193 36.4751 20.5821 36.2019 20.3095C35.6572 19.7643 35.6585 18.8806 36.2043 18.3366C37.7225 16.8209 37.7182 14.3458 36.1957 12.8166C35.6523 12.2713 35.6536 11.3889 36.1994 10.8449C36.7459 10.3021 37.6283 10.3033 38.1717 10.8486C40.7797 13.4652 40.7809 17.7095 38.1742 20.3107C37.9022 20.5833 37.5459 20.7193 37.1889 20.7193Z" fill="#434B56"/>
<path d="M40.2837 41.2461C39.7852 41.2461 39.304 40.9797 39.0529 40.5101C38.6892 39.8308 38.9446 38.9852 39.6246 38.6228C42.3778 37.1483 44.3914 34.5748 45.1532 31.5612C45.3409 30.8154 46.0966 30.3631 46.8461 30.5501C47.5932 30.7391 48.0449 31.4972 47.8578 32.2443C46.9052 36.0172 44.384 39.2381 40.9409 41.08C40.7311 41.1938 40.5058 41.2461 40.2837 41.2461Z" fill="white"/>
<path d="M36.9083 43.4455C35.9957 43.4455 35.2542 42.7033 35.2542 41.7913C35.2542 40.8793 35.9951 40.139 36.9083 40.139C37.8197 40.139 38.5606 40.8793 38.5606 41.7913C38.5606 42.7033 37.8197 43.4455 36.9083 43.4455Z" fill="white"/>
</svg>
